<?xml version="1.0" encoding="UTF-8" standalone="no"?>
<!DOCTYPE svg PUBLIC "-//W3C//DTD SVG 1.1//EN"
 "http://www.w3.org/Graphics/SVG/1.1/DTD/svg11.dtd">
<!-- Generated by graphviz version 2.43.0 (0)
 -->
<!-- Title: D Pages: 1 -->
<svg width="546pt" height="188pt"
 viewBox="0.00 0.00 545.64 188.00" xmlns="http://www.w3.org/2000/svg" xmlns:xlink="http://www.w3.org/1999/xlink">
<g id="graph0" class="graph" transform="scale(1 1) rotate(0) translate(4 184)">
<title>D</title>
<polygon fill="white" stroke="transparent" points="-4,4 -4,-184 541.64,-184 541.64,4 -4,4"/>
<!-- is -->
<g id="node1" class="node">
<title>is</title>
<ellipse fill="none" stroke="black" cx="177.3" cy="-90" rx="27" ry="18"/>
<text text-anchor="middle" x="177.3" y="-86.3" font-family="Times,serif" font-size="14.00">&quot;is&quot;</text>
</g>
<!-- &quot;where&quot; -->
<g id="node6" class="node">
<title>&quot;where&quot;</title>
<ellipse fill="none" stroke="black" cx="40.3" cy="-18" rx="40.09" ry="18"/>
<text text-anchor="middle" x="40.3" y="-14.3" font-family="Times,serif" font-size="14.00">&quot;where&quot;</text>
</g>
<!-- is&#45;&gt;&quot;where&quot; -->
<g id="edge4" class="edge">
<title>is&#45;&gt;&quot;where&quot;</title>
<path fill="none" stroke="black" d="M156.49,-78.37C134.89,-67.33 100.73,-49.88 75.03,-36.75"/>
<polygon fill="black" stroke="black" points="76.48,-33.56 65.98,-32.12 73.29,-39.79 76.48,-33.56"/>
</g>
<!-- &quot;each&quot; -->
<g id="node7" class="node">
<title>&quot;each&quot;</title>
<ellipse fill="none" stroke="black" cx="133.3" cy="-18" rx="34.39" ry="18"/>
<text text-anchor="middle" x="133.3" y="-14.3" font-family="Times,serif" font-size="14.00">&quot;each&quot;</text>
</g>
<!-- is&#45;&gt;&quot;each&quot; -->
<g id="edge5" class="edge">
<title>is&#45;&gt;&quot;each&quot;</title>
<path fill="none" stroke="black" d="M167.31,-73.12C161.88,-64.47 155.03,-53.58 148.91,-43.83"/>
<polygon fill="black" stroke="black" points="151.83,-41.91 143.55,-35.31 145.91,-45.64 151.83,-41.91"/>
</g>
<!-- &quot;node&quot; -->
<g id="node8" class="node">
<title>&quot;node&quot;</title>
<ellipse fill="none" stroke="black" cx="221.3" cy="-18" rx="36" ry="18"/>
<text text-anchor="middle" x="221.3" y="-14.3" font-family="Times,serif" font-size="14.00">&quot;node&quot;</text>
</g>
<!-- is&#45;&gt;&quot;node&quot; -->
<g id="edge6" class="edge">
<title>is&#45;&gt;&quot;node&quot;</title>
<path fill="none" stroke="black" d="M187.28,-73.12C192.72,-64.47 199.56,-53.58 205.69,-43.83"/>
<polygon fill="black" stroke="black" points="208.69,-45.64 211.05,-35.31 202.76,-41.91 208.69,-45.64"/>
</g>
<!-- a1 -->
<g id="node2" class="node">
<title>a1</title>
<ellipse fill="none" stroke="black" cx="323.3" cy="-90" rx="27" ry="18"/>
<text text-anchor="middle" x="323.3" y="-86.3" font-family="Times,serif" font-size="14.00">&quot;a&quot;</text>
</g>
<!-- &quot;contains&quot; -->
<g id="node9" class="node">
<title>&quot;contains&quot;</title>
<ellipse fill="none" stroke="black" cx="323.3" cy="-18" rx="48.19" ry="18"/>
<text text-anchor="middle" x="323.3" y="-14.3" font-family="Times,serif" font-size="14.00">&quot;contains&quot;</text>
</g>
<!-- a1&#45;&gt;&quot;contains&quot; -->
<g id="edge7" class="edge">
<title>a1&#45;&gt;&quot;contains&quot;</title>
<path fill="none" stroke="black" d="M323.3,-71.7C323.3,-63.98 323.3,-54.71 323.3,-46.11"/>
<polygon fill="black" stroke="black" points="326.8,-46.1 323.3,-36.1 319.8,-46.1 326.8,-46.1"/>
</g>
<!-- a2 -->
<g id="node3" class="node">
<title>a2</title>
<ellipse fill="none" stroke="black" cx="416.3" cy="-18" rx="27" ry="18"/>
<text text-anchor="middle" x="416.3" y="-14.3" font-family="Times,serif" font-size="14.00">&quot;a&quot;</text>
</g>
<!-- &quot;this&quot; -->
<g id="node4" class="node">
<title>&quot;this&quot;</title>
<ellipse fill="none" stroke="black" cx="323.3" cy="-162" rx="31.4" ry="18"/>
<text text-anchor="middle" x="323.3" y="-158.3" font-family="Times,serif" font-size="14.00">&quot;this&quot;</text>
</g>
<!-- &quot;this&quot;&#45;&gt;is -->
<g id="edge1" class="edge">
<title>&quot;this&quot;&#45;&gt;is</title>
<path fill="none" stroke="black" d="M300.16,-149.91C275.28,-137.98 235.58,-118.94 208.07,-105.76"/>
<polygon fill="black" stroke="black" points="209.42,-102.52 198.89,-101.36 206.4,-108.83 209.42,-102.52"/>
</g>
<!-- &quot;this&quot;&#45;&gt;a1 -->
<g id="edge2" class="edge">
<title>&quot;this&quot;&#45;&gt;a1</title>
<path fill="none" stroke="black" d="M323.3,-143.7C323.3,-135.98 323.3,-126.71 323.3,-118.11"/>
<polygon fill="black" stroke="black" points="326.8,-118.1 323.3,-108.1 319.8,-118.1 326.8,-118.1"/>
</g>
<!-- &quot;tree&quot; -->
<g id="node5" class="node">
<title>&quot;tree&quot;</title>
<ellipse fill="none" stroke="black" cx="416.3" cy="-90" rx="31.7" ry="18"/>
<text text-anchor="middle" x="416.3" y="-86.3" font-family="Times,serif" font-size="14.00">&quot;tree&quot;</text>
</g>
<!-- &quot;this&quot;&#45;&gt;&quot;tree&quot; -->
<g id="edge3" class="edge">
<title>&quot;this&quot;&#45;&gt;&quot;tree&quot;</title>
<path fill="none" stroke="black" d="M341.67,-147.17C355.43,-136.82 374.44,-122.5 389.84,-110.91"/>
<polygon fill="black" stroke="black" points="392.08,-113.61 397.96,-104.8 387.87,-108.02 392.08,-113.61"/>
</g>
<!-- &quot;tree&quot;&#45;&gt;a2 -->
<g id="edge8" class="edge">
<title>&quot;tree&quot;&#45;&gt;a2</title>
<path fill="none" stroke="black" d="M416.3,-71.7C416.3,-63.98 416.3,-54.71 416.3,-46.11"/>
<polygon fill="black" stroke="black" points="419.8,-46.1 416.3,-36.1 412.8,-46.1 419.8,-46.1"/>
</g>
<!-- &quot;string&quot; -->
<g id="node10" class="node">
<title>&quot;string&quot;</title>
<ellipse fill="none" stroke="black" cx="499.3" cy="-18" rx="38.19" ry="18"/>
<text text-anchor="middle" x="499.3" y="-14.3" font-family="Times,serif" font-size="14.00">&quot;string&quot;</text>
</g>
<!-- &quot;tree&quot;&#45;&gt;&quot;string&quot; -->
<g id="edge9" class="edge">
<title>&quot;tree&quot;&#45;&gt;&quot;string&quot;</title>
<path fill="none" stroke="black" d="M433.49,-74.5C445.13,-64.68 460.71,-51.54 473.79,-40.51"/>
<polygon fill="black" stroke="black" points="476.16,-43.09 481.55,-33.97 471.65,-37.74 476.16,-43.09"/>
</g>
</g>
</svg>
